<?xml version="1.0" encoding="utf-8"?>
<!-- Generator: Adobe Illustrator 16.0.0, SVG Export Plug-In . SVG Version: 6.00 Build 0)  -->
<!DOCTYPE svg PUBLIC "-//W3C//DTD SVG 1.1//EN" "http://www.w3.org/Graphics/SVG/1.1/DTD/svg11.dtd">
<svg version="1.1" id="Layer_1" xmlns="http://www.w3.org/2000/svg" xmlns:xlink="http://www.w3.org/1999/xlink" x="0px" y="0px"
	 width="419.531px" height="419.531px" viewBox="0 87.875 419.531 419.531" enable-background="new 0 87.875 419.531 419.531"
	 xml:space="preserve">
<rect y="87.875" fill="#7289DA" width="419.531" height="419.531"/>
<path fill="#FFFFFF" d="M283.511,409.078l-17.208-20.484c33.595-9.014,46.706-31.957,46.706-31.957
	c-42.609,40.15-158.963,41.789-204.03,0c0,0,11.472,21.305,45.886,31.957l-18.846,20.484c-57.357-0.819-79.481-39.33-79.481-39.33
	c0-85.218,37.692-153.228,37.692-153.228c38.512-27.04,73.746-27.04,73.746-27.04l2.458,3.278
	c-47.525,13.11-68.01,34.415-68.01,34.415c55.719-37.692,170.435-34.415,215.501,0c0.82-0.82-27.04-22.943-70.468-34.415
	l4.097-3.278c0,0,35.234,0,73.746,27.04c0,0,37.691,68.01,37.691,153.228C362.992,369.748,340.869,408.258,283.511,409.078z"/>
<ellipse fill="#7289DA" cx="160.602" cy="316.487" rx="27.04" ry="28.679"/>
<ellipse fill="#7289DA" cx="255.652" cy="316.487" rx="27.039" ry="28.679"/>
</svg>
