<?xml version="1.0" encoding="utf-8"?>
<!-- Generator: Adobe Illustrator 16.0.0, SVG Export Plug-In . SVG Version: 6.00 Build 0)  -->
<!DOCTYPE svg PUBLIC "-//W3C//DTD SVG 1.1//EN" "http://www.w3.org/Graphics/SVG/1.1/DTD/svg11.dtd">
<svg version="1.1"
	 id="Layer_1" xmlns:dc="http://purl.org/dc/elements/1.1/" xmlns:inkscape="http://www.inkscape.org/namespaces/inkscape" xmlns:rdf="http://www.w3.org/1999/02/22-rdf-syntax-ns#" xmlns:svg="http://www.w3.org/2000/svg" xmlns:sodipodi="http://sodipodi.sourceforge.net/DTD/sodipodi-0.dtd" xmlns:cc="http://creativecommons.org/ns#"
	 xmlns="http://www.w3.org/2000/svg" xmlns:xlink="http://www.w3.org/1999/xlink" x="0px" y="0px" width="100px" height="100px"
	 viewBox="0 0 100 100" enable-background="new 0 0 100 100" xml:space="preserve">
<g transform="translate(0,-952.36218)">
	<path fill="#FFFFFF" d="M18.903,991.514c-0.56,0.197-1.058,0.491-1.475,0.861l31.943,13.355c1.411,0.591,2.476,0.216,3.206-1.13
		l16.513-30.451c-0.55-0.023-1.114,0.052-1.667,0.247L18.903,991.514z M16.056,996.561c0.041,0.191,0.088,0.389,0.155,0.579
		l10.76,30.499c0.813,2.304,3.322,3.504,5.626,2.691l48.521-17.118c2.304-0.813,3.505-3.32,2.69-5.626l-10.759-30.498
		c-0.065-0.189-0.152-0.374-0.241-0.548l-16.35,30.149c-1.69,3.116-5.524,4.473-8.795,3.103L16.056,996.561z"/>
</g>
</svg>
