<?xml version="1.0" encoding="UTF-8" standalone="no"?>
<!DOCTYPE svg PUBLIC "-//W3C//DTD SVG 1.1//EN" "http://www.w3.org/Graphics/SVG/1.1/DTD/svg11.dtd">
<svg width="100%" height="100%" viewBox="0 0 54 54" version="1.1" xmlns="http://www.w3.org/2000/svg" xmlns:xlink="http://www.w3.org/1999/xlink" xml:space="preserve" xmlns:serif="http://www.serif.com/" style="fill-rule:evenodd;clip-rule:evenodd;stroke-linejoin:round;stroke-miterlimit:2;">
    <g id="Layer-1" serif:id="Layer 1">
        <g opacity="0.5">
            <g transform="matrix(1,0,0,1,27.0001,54.0003)">
                <path d="M0,-54C-14.912,-54 -27,-41.912 -27,-27C-27,-12.088 -14.912,0 0,0C14.912,0 27,-12.088 27,-27C27,-41.912 14.912,-54 0,-54M0,-52C13.785,-52 25,-40.785 25,-27C25,-13.215 13.785,-2 0,-2C-13.785,-2 -25,-13.215 -25,-27C-25,-40.785 -13.785,-52 0,-52" style="fill:rgb(35,31,32);fill-rule:nonzero;"/>
            </g>
        </g>
        <g opacity="0.5">
            <g transform="matrix(0,-1,-1,0,27.0001,4.8528)">
                <path d="M-22.148,-22.148C-34.379,-22.148 -44.295,-12.232 -44.295,-0.001C-44.295,12.231 -34.379,22.148 -22.148,22.148C-9.916,22.148 -0.001,12.231 -0.001,-0.001C-0.001,-12.232 -9.916,-22.148 -22.148,-22.148" style="fill-rule:nonzero;"/>
            </g>
        </g>
        <g opacity="0.5">
            <g transform="matrix(1,0,0,1,27.0001,51.9481)">
                <path d="M0,-49.895C-13.756,-49.895 -24.947,-38.704 -24.947,-24.948C-24.947,-11.192 -13.756,0 0,0C13.756,0 24.947,-11.192 24.947,-24.948C24.947,-38.704 13.756,-49.895 0,-49.895M0,-47.095C12.231,-47.095 22.147,-37.18 22.147,-24.948C22.147,-12.716 12.231,-2.8 0,-2.8C-12.232,-2.8 -22.147,-12.716 -22.147,-24.948C-22.147,-37.18 -12.232,-47.095 0,-47.095" style="fill:rgb(255,198,115);fill-rule:nonzero;"/>
            </g>
        </g>
        <g opacity="0.7">
            <g transform="matrix(1,0,0,1,23.0573,18.0498)">
                <path d="M0,17.847L-3.772,17.847L-3.772,7.52L-3.735,5.823L-3.674,3.968C-4.301,4.595 -4.736,5.005 -4.98,5.201L-7.031,6.848L-8.85,4.578L-3.101,0L0,0L0,17.847Z" style="fill:white;fill-rule:nonzero;"/>
            </g>
            <g transform="matrix(1,0,0,1,40.4767,17.7938)">
                <path d="M0,18.103L-12.476,18.103L-12.476,15.478L-7.996,10.95C-6.67,9.591 -5.803,8.649 -5.396,8.124C-4.988,7.599 -4.695,7.113 -4.517,6.665C-4.338,6.218 -4.248,5.754 -4.248,5.273C-4.248,4.558 -4.445,4.024 -4.84,3.674C-5.234,3.325 -5.762,3.149 -6.421,3.149C-7.113,3.149 -7.784,3.308 -8.436,3.625C-9.086,3.943 -9.766,4.395 -10.474,4.98L-12.524,2.551C-11.646,1.803 -10.918,1.274 -10.34,0.964C-9.762,0.655 -9.131,0.417 -8.447,0.25C-7.764,0.083 -6.999,0 -6.152,0C-5.037,0 -4.053,0.204 -3.198,0.61C-2.344,1.018 -1.681,1.587 -1.209,2.319C-0.736,3.052 -0.5,3.89 -0.5,4.834C-0.5,5.656 -0.645,6.427 -0.934,7.147C-1.223,7.868 -1.67,8.606 -2.276,9.363C-2.883,10.12 -3.951,11.199 -5.48,12.597L-7.775,14.758L-7.775,14.929L0,14.929L0,18.103Z" style="fill:white;fill-rule:nonzero;"/>
            </g>
        </g>
    </g>
</svg>
