<?xml version="1.0" encoding="utf-8"?>
<!-- Generator: Adobe Illustrator 16.0.0, SVG Export Plug-In . SVG Version: 6.00 Build 0)  -->
<!DOCTYPE svg PUBLIC "-//W3C//DTD SVG 1.1//EN" "http://www.w3.org/Graphics/SVG/1.1/DTD/svg11.dtd">
<svg version="1.1" id="Layer_1" xmlns="http://www.w3.org/2000/svg" xmlns:xlink="http://www.w3.org/1999/xlink" x="0px" y="0px"
	 width="54px" height="54px" viewBox="0 0 54 54" enable-background="new 0 0 54 54" xml:space="preserve">
<g>
	<g opacity="0.5">
		<path fill="#231F20" d="M27,2c13.785,0,25,11.215,25,25S40.785,52,27,52S2,40.785,2,27S13.215,2,27,2 M27,0
			C12.088,0,0,12.088,0,27c0,14.912,12.088,27,27,27c14.912,0,27-12.088,27-27C54,12.088,41.912,0,27,0L27,0z"/>
	</g>
</g>
<g>
	<circle opacity="0.5" cx="27" cy="27" r="22.147"/>
	<g opacity="0.5">
		<path fill="#FFFFFF" d="M27,4.853c12.231,0,22.147,9.916,22.147,22.147c0,12.231-9.916,22.147-22.147,22.147
			C14.768,49.147,4.853,39.231,4.853,27C4.853,14.768,14.768,4.853,27,4.853 M27,2.053C13.244,2.053,2.053,13.244,2.053,27
			S13.244,51.947,27,51.947S51.947,40.756,51.947,27S40.756,2.053,27,2.053L27,2.053z"/>
	</g>
</g>
<text transform="matrix(1 0 0 1 71.6641 35.8965)" fill="#FFFFFF" font-family="'OpenSans-Bold'" font-size="25">12</text>
<g opacity="0.7">
	<path fill="#FFFFFF" d="M23.057,35.896h-3.772V25.569l0.037-1.697l0.061-1.855c-0.627,0.627-1.062,1.038-1.306,1.233l-2.051,1.648
		l-1.819-2.271l5.75-4.578h3.101V35.896z"/>
	<path fill="#FFFFFF" d="M40.477,35.896H28.001v-2.625l4.479-4.528c1.326-1.359,2.193-2.301,2.601-2.826
		c0.407-0.524,0.7-1.011,0.879-1.458c0.179-0.447,0.269-0.911,0.269-1.392c0-0.716-0.197-1.249-0.592-1.599
		c-0.395-0.35-0.922-0.525-1.581-0.525c-0.692,0-1.363,0.159-2.015,0.476c-0.65,0.317-1.33,0.769-2.038,1.355l-2.051-2.429
		c0.879-0.749,1.606-1.277,2.185-1.587c0.578-0.309,1.209-0.547,1.893-0.714c0.684-0.167,1.448-0.25,2.295-0.25
		c1.115,0,2.1,0.204,2.954,0.61c0.854,0.407,1.518,0.977,1.989,1.709c0.473,0.732,0.709,1.571,0.709,2.515
		c0,0.822-0.145,1.593-0.434,2.313c-0.289,0.721-0.736,1.459-1.343,2.216s-1.675,1.836-3.204,3.234l-2.295,2.161v0.171h7.775V35.896
		z"/>
</g>
</svg>
