<?xml version="1.0" encoding="UTF-8" standalone="no"?>
<!DOCTYPE svg PUBLIC "-//W3C//DTD SVG 1.1//EN" "http://www.w3.org/Graphics/SVG/1.1/DTD/svg11.dtd">
<svg width="100%" height="100%" viewBox="0 0 54 54" version="1.1" xmlns="http://www.w3.org/2000/svg" xmlns:xlink="http://www.w3.org/1999/xlink" xml:space="preserve" xmlns:serif="http://www.serif.com/" style="fill-rule:evenodd;clip-rule:evenodd;stroke-linejoin:round;stroke-miterlimit:2;">
    <g id="Layer-1" serif:id="Layer 1">
        <g opacity="0.7">
            <g transform="matrix(1,0,0,1,27.0001,54.0003)">
                <path d="M0,-54C-14.912,-54 -27,-41.912 -27,-27C-27,-12.088 -14.912,0 0,0C14.912,0 27,-12.088 27,-27C27,-41.912 14.912,-54 0,-54M0,-52C13.785,-52 25,-40.785 25,-27C25,-13.215 13.785,-2 0,-2C-13.785,-2 -25,-13.215 -25,-27C-25,-40.785 -13.785,-52 0,-52" style="fill:rgb(35,31,32);fill-rule:nonzero;"/>
            </g>
        </g>
        <g opacity="0.7">
            <g transform="matrix(1,0,0,1,27.0001,3.4532)">
                <path d="M0,47.095C-12.984,47.095 -23.547,36.532 -23.547,23.547C-23.547,10.563 -12.984,0 0,0C12.984,0 23.548,10.563 23.548,23.547C23.548,36.532 12.984,47.095 0,47.095" style="fill-rule:nonzero;"/>
            </g>
        </g>
        <g transform="matrix(1,0,0,1,27.0001,51.9481)">
            <path d="M0,-49.895C-13.756,-49.895 -24.947,-38.704 -24.947,-24.948C-24.947,-11.192 -13.756,0 0,0C13.756,0 24.947,-11.192 24.947,-24.948C24.947,-38.704 13.756,-49.895 0,-49.895M0,-47.095C12.231,-47.095 22.147,-37.18 22.147,-24.948C22.147,-12.716 12.231,-2.8 0,-2.8C-12.232,-2.8 -22.147,-12.716 -22.147,-24.948C-22.147,-37.18 -12.232,-47.095 0,-47.095" style="fill:rgb(255,164,242);fill-rule:nonzero;"/>
        </g>
        <g transform="matrix(1,0,0,1,23.0573,18.0498)">
            <path d="M0,17.847L-3.772,17.847L-3.772,7.52L-3.735,5.823L-3.674,3.968C-4.301,4.595 -4.736,5.005 -4.98,5.201L-7.031,6.848L-8.85,4.578L-3.101,0L0,0L0,17.847Z" style="fill:white;fill-rule:nonzero;"/>
        </g>
        <g transform="matrix(1,0,0,1,34.4953,29.6965)">
            <path d="M0,-5.201C1.726,-5.201 3.099,-4.717 4.12,-3.748C5.142,-2.78 5.651,-1.454 5.651,0.232C5.651,2.226 5.037,3.759 3.809,4.833C2.579,5.907 0.821,6.445 -1.465,6.445C-3.45,6.445 -5.054,6.123 -6.274,5.481L-6.274,2.221C-5.632,2.563 -4.883,2.841 -4.028,3.057C-3.174,3.273 -2.364,3.38 -1.599,3.38C0.704,3.38 1.855,2.437 1.855,0.548C1.855,-1.25 0.663,-2.149 -1.722,-2.149C-2.153,-2.149 -2.629,-2.106 -3.149,-2.021C-3.671,-1.935 -4.094,-1.844 -4.419,-1.746L-5.921,-2.552L-5.249,-11.646L4.431,-11.646L4.431,-8.448L-1.94,-8.448L-2.271,-4.945L-1.843,-5.03C-1.347,-5.144 -0.732,-5.201 0,-5.201" style="fill:white;fill-rule:nonzero;"/>
        </g>
    </g>
</svg>
