<?xml version="1.0" encoding="utf-8"?>
<!-- Generator: Adobe Illustrator 16.0.0, SVG Export Plug-In . SVG Version: 6.00 Build 0)  -->
<!DOCTYPE svg PUBLIC "-//W3C//DTD SVG 1.1//EN" "http://www.w3.org/Graphics/SVG/1.1/DTD/svg11.dtd">
<svg version="1.1" id="Layer_1" xmlns="http://www.w3.org/2000/svg" xmlns:xlink="http://www.w3.org/1999/xlink" x="0px" y="0px"
	 width="54px" height="54px" viewBox="0 0 54 54" enable-background="new 0 0 54 54" xml:space="preserve">
<g>
	<g opacity="0.7">
		<path fill="#231F20" d="M27,2c13.785,0,25,11.215,25,25S40.785,52,27,52S2,40.785,2,27S13.215,2,27,2 M27,0
			C12.088,0,0,12.088,0,27c0,14.912,12.088,27,27,27c14.912,0,27-12.088,27-27C54,12.088,41.912,0,27,0L27,0z"/>
	</g>
</g>
<g>
	<path opacity="0.7" d="M27,50.548C14.016,50.548,3.453,39.984,3.453,27C3.453,14.016,14.016,3.453,27,3.453
		c12.984,0,23.548,10.563,23.548,23.547C50.548,39.984,39.984,50.548,27,50.548z"/>
	<path fill="#FFFFFF" d="M27,4.853c12.231,0,22.147,9.916,22.147,22.147c0,12.231-9.916,22.147-22.147,22.147
		C14.768,49.147,4.853,39.231,4.853,27C4.853,14.768,14.768,4.853,27,4.853 M27,2.053C13.244,2.053,2.053,13.244,2.053,27
		S13.244,51.947,27,51.947S51.947,40.756,51.947,27S40.756,2.053,27,2.053L27,2.053z"/>
</g>
<text transform="matrix(1 0 0 1 71.6641 35.8965)" fill="#FFFFFF" font-family="'OpenSans-Bold'" font-size="25">15</text>
<g>
	<path fill="#FFFFFF" d="M23.057,35.896h-3.772V25.569l0.037-1.697l0.061-1.855c-0.627,0.627-1.062,1.038-1.306,1.233l-2.051,1.648
		l-1.819-2.271l5.75-4.578h3.101V35.896z"/>
	<path fill="#FFFFFF" d="M34.495,24.495c1.726,0,3.099,0.484,4.12,1.453c1.021,0.969,1.531,2.294,1.531,3.98
		c0,1.994-0.614,3.527-1.843,4.602c-1.229,1.074-2.987,1.611-5.273,1.611c-1.985,0-3.589-0.321-4.81-0.964v-3.26
		c0.643,0.342,1.392,0.62,2.246,0.836s1.664,0.323,2.43,0.323c2.303,0,3.454-0.943,3.454-2.832c0-1.798-1.192-2.697-3.577-2.697
		c-0.432,0-0.907,0.043-1.428,0.128c-0.521,0.086-0.944,0.177-1.27,0.275l-1.502-0.806l0.672-9.094h9.68v3.198h-6.371l-0.33,3.503
		l0.428-0.085C33.148,24.552,33.763,24.495,34.495,24.495z"/>
</g>
</svg>
