<?xml version="1.0" encoding="utf-8"?>
<!-- Generator: Adobe Illustrator 16.0.0, SVG Export Plug-In . SVG Version: 6.00 Build 0)  -->
<!DOCTYPE svg PUBLIC "-//W3C//DTD SVG 1.1//EN" "http://www.w3.org/Graphics/SVG/1.1/DTD/svg11.dtd">
<svg version="1.1" id="Layer_1" xmlns="http://www.w3.org/2000/svg" xmlns:xlink="http://www.w3.org/1999/xlink" x="0px" y="0px"
	 width="54px" height="54px" viewBox="0 0 54 54" enable-background="new 0 0 54 54" xml:space="preserve">
<path fill="#231F20" d="M-40.497,60.748l-14.337-24.834c-0.536-0.928-1.526-1.5-2.598-1.5s-2.062,0.572-2.598,1.5l-14.337,24.833
	c-0.536,0.928-0.536,2.071,0,3c0.536,0.928,1.526,1.5,2.598,1.5l28.675,0.001c1.072,0,2.062-0.571,2.598-1.5
	C-39.961,62.82-39.961,61.677-40.497,60.748z"/>
<g>
	<path fill="#FFFFFF" d="M-117.723,63.747c-0.536,0-1.031-0.286-1.299-0.75c-0.268-0.464-0.268-1.036,0-1.5l14.337-24.833
		c0.268-0.464,0.763-0.75,1.299-0.75s1.031,0.286,1.299,0.75l14.337,24.834c0.268,0.464,0.268,1.036,0,1.5
		c-0.268,0.464-0.763,0.75-1.299,0.75L-117.723,63.747z"/>
	<path fill="#231F20" d="M-103.386,37.414l14.337,24.834l-28.675-0.001L-103.386,37.414 M-103.386,34.414
		c-1.072,0-2.062,0.572-2.598,1.5l-14.337,24.833c-0.536,0.928-0.536,2.071,0,3c0.536,0.928,1.526,1.5,2.598,1.5l28.675,0.001
		c1.072,0,2.062-0.571,2.598-1.5c0.536-0.928,0.536-2.071,0-3l-14.337-24.834C-101.324,34.986-102.314,34.414-103.386,34.414
		L-103.386,34.414z"/>
</g>
<path fill="#231F20" fill-opacity="0.5" d="M53.271,42.354L32.137,5.749c-1.054-1.824-3-2.948-5.106-2.948
	c-2.107,0-4.053,1.124-5.106,2.948L0.791,42.354c-1.054,1.824-1.054,4.072-0.001,5.896c1.054,1.823,3,2.948,5.107,2.948
	l42.268,0.001c2.106,0,4.053-1.124,5.106-2.948C54.324,46.428,54.324,44.179,53.271,42.354z M51.995,47.514
	c-0.792,1.369-2.252,2.212-3.831,2.212L5.896,49.724c-1.58,0-3.04-0.844-3.83-2.211c-0.79-1.369-0.79-3.055,0-4.422L23.201,6.485
	c0.79-1.367,2.25-2.211,3.83-2.211s3.039,0.844,3.83,2.211l21.135,36.606C52.783,44.461,52.783,46.146,51.995,47.514z"/>
<path fill="#231F20" fill-opacity="0.5" d="M48.952,43.356L28.851,8.54c-0.374-0.65-1.068-1.051-1.82-1.051
	c-0.751,0-1.446,0.401-1.821,1.051l-20.1,34.815c-0.376,0.649-0.376,1.452,0,2.103c0.375,0.65,1.069,1.052,1.821,1.052h40.2
	c0.752,0,1.446-0.399,1.822-1.051C49.328,44.809,49.328,44.006,48.952,43.356z"/>
<path fill="#FFFFFF" fill-opacity="0.5" d="M51.964,43.092L30.829,6.485c-0.791-1.367-2.25-2.211-3.83-2.211
	S23.96,5.118,23.17,6.485L2.036,43.091c-0.79,1.367-0.79,3.053,0,4.422c0.79,1.367,2.25,2.211,3.83,2.211l42.268,0.002
	c1.578,0,3.039-0.843,3.83-2.212C52.753,46.146,52.753,44.461,51.964,43.092z M50.048,46.408c-0.395,0.685-1.125,1.105-1.915,1.105
	L5.865,47.513c-0.791,0-1.521-0.422-1.915-1.105c-0.396-0.684-0.396-1.527,0-2.211L25.084,7.591
	c0.395-0.684,1.125-1.105,1.915-1.105c0.791,0,1.521,0.422,1.914,1.105l21.135,36.606C50.443,44.881,50.443,45.725,50.048,46.408z"
	/>
<g>
	<path fill="#FFFFFF" d="M-159.328,63.747c-0.536,0-1.031-0.286-1.299-0.75c-0.268-0.464-0.268-1.036,0-1.5l14.337-24.833
		c0.268-0.464,0.763-0.75,1.299-0.75s1.031,0.286,1.299,0.75l14.337,24.834c0.268,0.464,0.268,1.036,0,1.5
		c-0.268,0.464-0.763,0.75-1.299,0.75L-159.328,63.747z"/>
	<path fill="#231F20" d="M-144.991,37.414l14.337,24.834l-28.675-0.001L-144.991,37.414 M-144.991,34.414
		c-1.072,0-2.062,0.572-2.598,1.5l-14.337,24.833c-0.536,0.928-0.536,2.071,0,3c0.536,0.928,1.526,1.5,2.598,1.5l28.675,0.001
		c1.072,0,2.062-0.571,2.598-1.5c0.536-0.928,0.536-2.071,0-3l-14.337-24.834C-142.929,34.986-143.919,34.414-144.991,34.414
		L-144.991,34.414z"/>
</g>
<g opacity="0.7">
	<path fill="#FFFFFF" d="M25.476,33.16c0,1.768-0.552,3.119-1.656,4.055c-1.104,0.936-2.675,1.404-4.711,1.404h-1.494v5.84h-3.481
		v-16.42h5.245c1.992,0,3.506,0.43,4.542,1.287C24.957,30.183,25.476,31.461,25.476,33.16z M17.614,35.766h1.146
		c1.071,0,1.872-0.211,2.403-0.635c0.532-0.422,0.797-1.038,0.797-1.847c0-0.815-0.223-1.419-0.668-1.808
		c-0.445-0.39-1.144-0.584-2.094-0.584h-1.583V35.766z"/>
	<path fill="#FFFFFF" d="M33.64,35.238h6.514v8.512c-1.056,0.346-2.05,0.586-2.981,0.725s-1.885,0.209-2.858,0.209
		c-2.478,0-4.37-0.729-5.677-2.186c-1.307-1.455-1.96-3.547-1.96-6.271c0-2.65,0.758-4.717,2.274-6.199
		c1.516-1.482,3.617-2.224,6.306-2.224c1.685,0,3.31,0.337,4.874,1.011L38.975,31.6c-1.198-0.6-2.445-0.898-3.74-0.898
		c-1.505,0-2.711,0.506-3.616,1.516c-0.905,1.012-1.358,2.37-1.358,4.077c0,1.782,0.365,3.143,1.094,4.083
		c0.73,0.939,1.792,1.408,3.185,1.408c0.726,0,1.464-0.074,2.212-0.225v-3.425h-3.11V35.238z"/>
</g>
<text transform="matrix(1 0 0 1 72.5918 44.459)" fill="#FFFFFF" font-family="'OpenSans-Bold'" font-size="23" letter-spacing="-1">PG</text>
<path fill="#231F20" d="M-8.516,43.092L-29.651,6.485c-0.791-1.367-2.25-2.211-3.83-2.211s-3.039,0.844-3.829,2.211l-21.134,36.605
	c-0.79,1.367-0.79,3.053,0,4.422c0.79,1.367,2.25,2.211,3.83,2.211l42.268,0.002c1.578,0,3.039-0.843,3.83-2.212
	C-7.727,46.146-7.727,44.461-8.516,43.092z M-11.559,45.459c-0.376,0.651-1.07,1.051-1.822,1.051h-40.2
	c-0.752,0-1.446-0.401-1.821-1.052c-0.376-0.65-0.376-1.453,0-2.103l20.1-34.815c0.375-0.65,1.069-1.051,1.821-1.051
	c0.752,0,1.446,0.401,1.82,1.051l20.102,34.816C-11.183,44.006-11.183,44.809-11.559,45.459z"/>
<path fill="#FFFFFF" fill-opacity="0.5" d="M51.964,43.092L30.829,6.485c-0.791-1.367-2.25-2.211-3.83-2.211
	S23.96,5.118,23.17,6.485L2.036,43.091c-0.79,1.367-0.79,3.053,0,4.422c0.79,1.367,2.25,2.211,3.83,2.211l42.268,0.002
	c1.578,0,3.039-0.843,3.83-2.212C52.753,46.146,52.753,44.461,51.964,43.092z M48.921,45.459c-0.376,0.651-1.07,1.051-1.822,1.051
	h-40.2c-0.752,0-1.446-0.401-1.821-1.052c-0.376-0.65-0.376-1.453,0-2.103l20.1-34.815c0.375-0.65,1.069-1.051,1.821-1.051
	c0.752,0,1.446,0.401,1.82,1.051l20.102,34.816C49.297,44.006,49.297,44.809,48.921,45.459z"/>
</svg>
