<?xml version="1.0" encoding="UTF-8" standalone="no"?>
<!DOCTYPE svg PUBLIC "-//W3C//DTD SVG 1.1//EN" "http://www.w3.org/Graphics/SVG/1.1/DTD/svg11.dtd">
<svg width="100%" height="100%" viewBox="0 0 54 54" version="1.1" xmlns="http://www.w3.org/2000/svg" xmlns:xlink="http://www.w3.org/1999/xlink" xml:space="preserve" xmlns:serif="http://www.serif.com/" style="fill-rule:evenodd;clip-rule:evenodd;stroke-linejoin:round;stroke-miterlimit:2;">
    <g id="Layer-1" serif:id="Layer 1">
        <g opacity="0.5">
            <g transform="matrix(1,0,0,1,51.9953,6.487)">
                <path d="M0,41.027C-0.792,42.396 -2.252,43.239 -3.831,43.239L-46.099,43.237C-47.679,43.237 -49.138,42.393 -49.929,41.026C-50.718,39.657 -50.718,37.971 -49.929,36.604L-28.794,-0.001C-28.004,-1.369 -26.545,-2.212 -24.965,-2.212C-23.385,-2.212 -21.926,-1.369 -21.135,-0.001L0,36.605C0.788,37.974 0.788,39.66 0,41.027M1.275,35.868L-19.858,-0.738C-20.912,-2.562 -22.858,-3.686 -24.965,-3.686C-27.072,-3.686 -29.018,-2.562 -30.071,-0.738L-51.205,35.867C-52.258,37.691 -52.258,39.939 -51.206,41.763C-50.152,43.587 -48.206,44.712 -46.099,44.712L-3.831,44.713C-1.725,44.713 0.222,43.589 1.275,41.764C2.329,39.941 2.329,37.692 1.275,35.868" style="fill:rgb(35,31,32);fill-rule:nonzero;"/>
            </g>
        </g>
        <g opacity="0.5">
            <g transform="matrix(1,0,0,1,48.9523,10.6418)">
                <path d="M0,32.715L-20.102,-2.101C-20.476,-2.751 -21.17,-3.153 -21.922,-3.153C-22.673,-3.153 -23.368,-2.751 -23.743,-2.101L-43.843,32.714C-44.219,33.363 -44.219,34.166 -43.843,34.817C-43.468,35.467 -42.774,35.868 -42.022,35.868L-1.822,35.868C-1.07,35.868 -0.376,35.469 0,34.818C0.376,34.167 0.376,33.364 0,32.715" style="fill:rgb(35,31,32);fill-rule:nonzero;"/>
            </g>
        </g>
        <g opacity="0.5">
            <g transform="matrix(1,0,0,1,50.048,7.5916)">
                <path d="M0,38.817C-0.395,39.502 -1.125,39.922 -1.915,39.922L-44.183,39.921C-44.973,39.921 -45.703,39.5 -46.097,38.816C-46.493,38.132 -46.493,37.289 -46.097,36.605L-24.963,0C-24.569,-0.684 -23.839,-1.106 -23.049,-1.106C-22.258,-1.106 -21.528,-0.684 -21.135,0L0,36.606C0.396,37.29 0.396,38.133 0,38.817M1.916,35.501L-19.219,-1.106C-20.01,-2.473 -21.469,-3.317 -23.049,-3.317C-24.629,-3.317 -26.088,-2.473 -26.878,-1.106L-48.012,35.5C-48.802,36.867 -48.802,38.552 -48.012,39.921C-47.222,41.289 -45.762,42.132 -44.182,42.132L-1.914,42.134C-0.336,42.134 1.125,41.292 1.916,39.922C2.705,38.555 2.705,36.87 1.916,35.501" style="fill:white;fill-rule:nonzero;"/>
            </g>
        </g>
        <g transform="matrix(1,0,0,1,34.3546,44.7032)">
            <path d="M0,-18.091L0,-6.543C0,-5.224 -0.295,-4.069 -0.885,-3.076C-1.476,-2.084 -2.327,-1.322 -3.442,-0.795C-4.558,-0.265 -5.876,0 -7.397,0C-9.692,0 -11.474,-0.588 -12.744,-1.763C-14.013,-2.94 -14.648,-4.549 -14.648,-6.591L-14.648,-18.091L-10.876,-18.091L-10.876,-7.166C-10.876,-5.791 -10.6,-4.781 -10.046,-4.138C-9.493,-3.496 -8.577,-3.174 -7.299,-3.174C-6.063,-3.174 -5.165,-3.498 -4.608,-4.144C-4.051,-4.791 -3.772,-5.806 -3.772,-7.19L-3.772,-18.091L0,-18.091Z" style="fill:white;fill-rule:nonzero;"/>
        </g>
        <g opacity="0.5">
            <g transform="matrix(1,0,0,1,48.921,8.5413)">
                <path d="M0,36.918C-0.376,37.569 -1.07,37.969 -1.822,37.969L-42.022,37.969C-42.774,37.969 -43.468,37.567 -43.843,36.917C-44.219,36.267 -44.219,35.464 -43.843,34.814L-23.743,-0.001C-23.368,-0.651 -22.673,-1.052 -21.922,-1.052C-21.17,-1.052 -20.476,-0.651 -20.102,-0.001L0,34.815C0.376,35.465 0.376,36.268 0,36.918M3.043,34.551L-18.092,-2.056C-18.883,-3.423 -20.342,-4.267 -21.922,-4.267C-23.502,-4.267 -24.961,-3.423 -25.751,-2.056L-46.885,34.55C-47.675,35.917 -47.675,37.603 -46.885,38.972C-46.095,40.339 -44.635,41.183 -43.055,41.183L-0.787,41.185C0.791,41.185 2.252,40.342 3.043,38.973C3.832,37.605 3.832,35.92 3.043,34.551" style="fill:rgb(166,255,165);fill-rule:nonzero;"/>
            </g>
        </g>
    </g>
</svg>
