<?xml version="1.0" encoding="utf-8"?>
<!-- Generator: Adobe Illustrator 16.0.0, SVG Export Plug-In . SVG Version: 6.00 Build 0)  -->
<!DOCTYPE svg PUBLIC "-//W3C//DTD SVG 1.1//EN" "http://www.w3.org/Graphics/SVG/1.1/DTD/svg11.dtd">
<svg version="1.1" id="Layer_1" xmlns="http://www.w3.org/2000/svg" xmlns:xlink="http://www.w3.org/1999/xlink" x="0px" y="0px"
	 width="54px" height="54px" viewBox="0 0 54 54" enable-background="new 0 0 54 54" xml:space="preserve">
<path fill="#231F20" d="M-40.497,60.748l-14.337-24.834c-0.536-0.928-1.526-1.5-2.598-1.5s-2.062,0.572-2.598,1.5l-14.337,24.833
	c-0.536,0.928-0.536,2.071,0,3c0.536,0.928,1.526,1.5,2.598,1.5l28.675,0.001c1.072,0,2.062-0.571,2.598-1.5
	C-39.961,62.82-39.961,61.677-40.497,60.748z"/>
<g>
	<path fill="#FFFFFF" d="M-117.723,63.747c-0.536,0-1.031-0.286-1.299-0.75c-0.268-0.464-0.268-1.036,0-1.5l14.337-24.833
		c0.268-0.464,0.763-0.75,1.299-0.75s1.031,0.286,1.299,0.75l14.337,24.834c0.268,0.464,0.268,1.036,0,1.5
		c-0.268,0.464-0.763,0.75-1.299,0.75L-117.723,63.747z"/>
	<path fill="#231F20" d="M-103.386,37.414l14.337,24.834l-28.675-0.001L-103.386,37.414 M-103.386,34.414
		c-1.072,0-2.062,0.572-2.598,1.5l-14.337,24.833c-0.536,0.928-0.536,2.071,0,3c0.536,0.928,1.526,1.5,2.598,1.5l28.675,0.001
		c1.072,0,2.062-0.571,2.598-1.5c0.536-0.928,0.536-2.071,0-3l-14.337-24.834C-101.324,34.986-102.314,34.414-103.386,34.414
		L-103.386,34.414z"/>
</g>
<path fill="#231F20" fill-opacity="0.5" d="M53.271,42.354L32.137,5.749c-1.054-1.824-3-2.948-5.106-2.948
	c-2.107,0-4.053,1.124-5.106,2.948L0.791,42.354c-1.054,1.824-1.054,4.072-0.001,5.896c1.054,1.823,3,2.948,5.107,2.948
	l42.268,0.001c2.106,0,4.053-1.124,5.106-2.948C54.324,46.428,54.324,44.179,53.271,42.354z M51.995,47.514
	c-0.792,1.369-2.252,2.212-3.831,2.212L5.896,49.724c-1.58,0-3.04-0.844-3.83-2.211c-0.79-1.369-0.79-3.055,0-4.422L23.201,6.485
	c0.79-1.367,2.25-2.211,3.83-2.211s3.039,0.844,3.83,2.211l21.135,36.606C52.783,44.461,52.783,46.146,51.995,47.514z"/>
<path fill="#231F20" fill-opacity="0.5" d="M48.952,43.356L28.851,8.54c-0.374-0.65-1.068-1.051-1.82-1.051
	c-0.751,0-1.446,0.401-1.821,1.051l-20.1,34.815c-0.376,0.649-0.376,1.452,0,2.103c0.375,0.65,1.069,1.052,1.821,1.052h40.2
	c0.752,0,1.446-0.399,1.822-1.051C49.328,44.809,49.328,44.006,48.952,43.356z"/>
<path fill="#FFFFFF" fill-opacity="0.5" d="M51.964,43.092L30.829,6.485c-0.791-1.367-2.25-2.211-3.83-2.211
	S23.96,5.118,23.17,6.485L2.036,43.091c-0.79,1.367-0.79,3.053,0,4.422c0.79,1.367,2.25,2.211,3.83,2.211l42.268,0.002
	c1.578,0,3.039-0.843,3.83-2.212C52.753,46.146,52.753,44.461,51.964,43.092z M50.048,46.408c-0.395,0.685-1.125,1.105-1.915,1.105
	L5.865,47.513c-0.791,0-1.521-0.422-1.915-1.105c-0.396-0.684-0.396-1.527,0-2.211L25.084,7.591
	c0.395-0.684,1.125-1.105,1.915-1.105c0.791,0,1.521,0.422,1.914,1.105l21.135,36.606C50.443,44.881,50.443,45.725,50.048,46.408z"
	/>
<g>
	<path fill="#FFFFFF" d="M-159.328,63.747c-0.536,0-1.031-0.286-1.299-0.75c-0.268-0.464-0.268-1.036,0-1.5l14.337-24.833
		c0.268-0.464,0.763-0.75,1.299-0.75s1.031,0.286,1.299,0.75l14.337,24.834c0.268,0.464,0.268,1.036,0,1.5
		c-0.268,0.464-0.763,0.75-1.299,0.75L-159.328,63.747z"/>
	<path fill="#231F20" d="M-144.991,37.414l14.337,24.834l-28.675-0.001L-144.991,37.414 M-144.991,34.414
		c-1.072,0-2.062,0.572-2.598,1.5l-14.337,24.833c-0.536,0.928-0.536,2.071,0,3c0.536,0.928,1.526,1.5,2.598,1.5l28.675,0.001
		c1.072,0,2.062-0.571,2.598-1.5c0.536-0.928,0.536-2.071,0-3l-14.337-24.834C-142.929,34.986-143.919,34.414-144.991,34.414
		L-144.991,34.414z"/>
</g>
<text transform="matrix(1 0 0 1 78.1172 44.459)" fill="#FFFFFF" font-family="'OpenSans-Bold'" font-size="25" letter-spacing="-1">U</text>
<g>
	<path fill="#FFFFFF" d="M34.354,26.612V38.16c0,1.318-0.295,2.474-0.885,3.467c-0.591,0.992-1.442,1.754-2.558,2.281
		c-1.115,0.529-2.434,0.795-3.955,0.795c-2.295,0-4.077-0.588-5.347-1.764c-1.27-1.177-1.904-2.785-1.904-4.828v-11.5h3.772v10.925
		c0,1.375,0.276,2.385,0.83,3.027c0.553,0.643,1.469,0.965,2.747,0.965c1.236,0,2.134-0.324,2.691-0.971
		c0.558-0.646,0.836-1.662,0.836-3.046V26.612H34.354z"/>
</g>
<path fill="#231F20" d="M-8.516,43.092L-29.651,6.485c-0.791-1.367-2.25-2.211-3.83-2.211s-3.039,0.844-3.829,2.211l-21.134,36.605
	c-0.79,1.367-0.79,3.053,0,4.422c0.79,1.367,2.25,2.211,3.83,2.211l42.268,0.002c1.578,0,3.039-0.843,3.83-2.212
	C-7.727,46.146-7.727,44.461-8.516,43.092z M-11.559,45.459c-0.376,0.651-1.07,1.051-1.822,1.051h-40.2
	c-0.752,0-1.446-0.401-1.821-1.052c-0.376-0.65-0.376-1.453,0-2.103l20.1-34.815c0.375-0.65,1.069-1.051,1.821-1.051
	c0.752,0,1.446,0.401,1.82,1.051l20.102,34.816C-11.183,44.006-11.183,44.809-11.559,45.459z"/>
<path fill="#FFFFFF" fill-opacity="0.5" d="M51.964,43.092L30.829,6.485c-0.791-1.367-2.25-2.211-3.83-2.211
	S23.96,5.118,23.17,6.485L2.036,43.091c-0.79,1.367-0.79,3.053,0,4.422c0.79,1.367,2.25,2.211,3.83,2.211l42.268,0.002
	c1.578,0,3.039-0.843,3.83-2.212C52.753,46.146,52.753,44.461,51.964,43.092z M48.921,45.459c-0.376,0.651-1.07,1.051-1.822,1.051
	h-40.2c-0.752,0-1.446-0.401-1.821-1.052c-0.376-0.65-0.376-1.453,0-2.103l20.1-34.815c0.375-0.65,1.069-1.051,1.821-1.051
	c0.752,0,1.446,0.401,1.82,1.051l20.102,34.816C49.297,44.006,49.297,44.809,48.921,45.459z"/>
</svg>
